<svg width="48" height="27" viewBox="0 0 48 27" fill="none" xmlns="http://www.w3.org/2000/svg">
<path fill-rule="evenodd" clip-rule="evenodd" d="M46.8244 14.5184C47.0876 14.2552 47.2355 13.8981 47.2355 13.5259C47.2355 13.1536 47.0876 12.7966 46.8244 12.5333L34.914 0.62293C34.6508 0.359693 34.2937 0.211808 33.9215 0.211808C33.5492 0.211807 33.1922 0.359695 32.9289 0.622928C32.6657 0.886166 32.5178 1.24319 32.5178 1.61546C32.5178 1.98773 32.6657 2.34476 32.9289 2.608L42.4433 12.1224L2.1604 12.1204C1.78766 12.1204 1.43019 12.2685 1.16662 12.5321C0.903048 12.7956 0.754977 13.1531 0.754977 13.5259C0.754977 13.8986 0.903048 14.2561 1.16662 14.5196C1.43019 14.7832 1.78766 14.9313 2.1604 14.9313L42.4433 14.9293L32.9289 24.4437C32.6657 24.707 32.5178 25.064 32.5178 25.4363C32.5178 25.8085 32.6657 26.1655 32.9289 26.4288C33.1922 26.692 33.5492 26.8399 33.9215 26.8399C34.2937 26.8399 34.6508 26.692 34.914 26.4288L46.8244 14.5184Z" fill="white"/>
</svg>
