<svg width="47" height="27" viewBox="0 0 47 27" fill="none" xmlns="http://www.w3.org/2000/svg">
<path fill-rule="evenodd" clip-rule="evenodd" d="M0.841448 12.4047C0.578215 12.6679 0.430327 13.025 0.430329 13.3972C0.430329 13.7695 0.578213 14.1265 0.841449 14.3898L12.7518 26.3002C13.0151 26.5634 13.3721 26.7113 13.7444 26.7113C14.1166 26.7113 14.4737 26.5634 14.7369 26.3002C15.0001 26.0369 15.148 25.6799 15.148 25.3076C15.148 24.9354 15.0001 24.5783 14.7369 24.3151L5.22249 14.8007L45.5054 14.8027C45.8782 14.8027 46.2356 14.6546 46.4992 14.391C46.7628 14.1275 46.9109 13.77 46.9109 13.3972C46.9109 13.0245 46.7628 12.667 46.4992 12.4035C46.2356 12.1399 45.8782 11.9918 45.5054 11.9918L5.22249 11.9938L14.7369 2.47938C15.0001 2.21614 15.148 1.85912 15.148 1.48684C15.148 1.11457 15.0001 0.757546 14.7369 0.49431C14.4737 0.231074 14.1166 0.0831911 13.7444 0.0831911C13.3721 0.083191 13.0151 0.231074 12.7518 0.494311L0.841448 12.4047Z" fill="black"/>
</svg>
