<svg width="29" height="49" viewBox="0 0 29 49" fill="none" xmlns="http://www.w3.org/2000/svg">
<path fill-rule="evenodd" clip-rule="evenodd" d="M15.6296 0.703876C15.3565 0.43073 14.986 0.277274 14.5997 0.277275C14.2134 0.277273 13.8429 0.430729 13.5698 0.703877L1.21089 13.0628C0.937738 13.3359 0.784282 13.7064 0.784283 14.0927C0.784283 14.479 0.93774 14.8494 1.21089 15.1226C1.48404 15.3957 1.85451 15.5492 2.24079 15.5492C2.62708 15.5492 2.99756 15.3957 3.2707 15.1226L13.1434 5.24989L13.1413 47.0497C13.1413 47.4365 13.295 47.8075 13.5685 48.081C13.842 48.3544 14.2129 48.5081 14.5997 48.5081C14.9865 48.5081 15.3574 48.3544 15.6309 48.081C15.9044 47.8075 16.058 47.4365 16.058 47.0497L16.056 5.24989L25.9287 15.1226C26.2018 15.3957 26.5723 15.5492 26.9586 15.5492C27.3449 15.5492 27.7153 15.3957 27.9885 15.1226C28.2616 14.8494 28.4151 14.479 28.4151 14.0927C28.4151 13.7064 28.2616 13.3359 27.9885 13.0628L15.6296 0.703876Z" fill="#FF3E80"/>
</svg>
