<svg width="33" height="19" viewBox="0 0 33 19" fill="none" xmlns="http://www.w3.org/2000/svg">
<path fill-rule="evenodd" clip-rule="evenodd" d="M32.4676 10.4842C32.6475 10.3043 32.7486 10.0603 32.7486 9.80583C32.7486 9.55138 32.6475 9.30736 32.4676 9.12745L24.3271 0.986907C24.1471 0.806989 23.9031 0.705913 23.6487 0.705912C23.3942 0.705913 23.1502 0.80699 22.9703 0.986907C22.7904 1.16682 22.6893 1.41084 22.6893 1.66529C22.6893 1.91973 22.7904 2.16375 22.9703 2.34366L29.4732 8.8466L1.94057 8.84525C1.68581 8.84525 1.44148 8.94645 1.26134 9.12659C1.08119 9.30674 0.97999 9.55107 0.979989 9.80583C0.97999 10.0606 1.08119 10.3049 1.26134 10.4851C1.44148 10.6652 1.68581 10.7664 1.94057 10.7664L29.4732 10.7651L22.9703 17.268C22.7904 17.4479 22.6893 17.6919 22.6893 17.9464C22.6893 18.2008 22.7904 18.4448 22.9703 18.6247C23.1502 18.8047 23.3942 18.9057 23.6487 18.9057C23.9031 18.9057 24.1471 18.8047 24.3271 18.6247L32.4676 10.4842Z" fill="white"/>
</svg>
