<svg width="24" height="24" viewBox="0 0 24 24" fill="none" xmlns="http://www.w3.org/2000/svg">
<path fill-rule="evenodd" clip-rule="evenodd" d="M11.712 0.990723C5.41607 0.990723 0.307594 6.0992 0.307594 12.3951C0.307594 18.691 5.41607 23.7995 11.712 23.7995C17.9955 23.7995 23.1164 18.691 23.1164 12.3951C23.1164 6.0992 17.9955 0.990723 11.712 0.990723ZM19.2448 6.24762C20.6054 7.90509 21.4218 10.0202 21.4465 12.3085C21.1249 12.2467 17.9089 11.5911 14.6682 11.9993C14.594 11.8385 14.5321 11.6653 14.458 11.4922C14.26 11.0221 14.0374 10.5397 13.8147 10.0821C17.4018 8.62251 19.0345 6.51975 19.2448 6.24762ZM11.712 2.67293C14.1858 2.67293 16.4494 3.60062 18.1687 5.12203C17.9955 5.36941 16.5236 7.33612 13.0602 8.63488C11.4646 5.70338 9.6958 3.30376 9.42369 2.93268C10.1535 2.75952 10.9204 2.67293 11.712 2.67293ZM7.56831 3.58825C7.82806 3.93458 9.55974 6.34659 11.1801 9.21623C6.62825 10.4284 2.60827 10.4037 2.17534 10.4037C2.80616 7.3856 4.84709 4.87465 7.56831 3.58825ZM1.96506 12.4075C1.96506 12.3085 1.96506 12.2096 1.96506 12.1106C2.38562 12.123 7.11065 12.1848 11.9717 10.7253C12.2562 11.2695 12.516 11.8261 12.7634 12.3827C12.6397 12.4199 12.5036 12.457 12.3799 12.4941C7.35804 14.1144 4.68629 18.5426 4.46365 18.9137C2.91749 17.1943 1.96506 14.9061 1.96506 12.4075ZM11.712 22.142C9.4608 22.142 7.38276 21.3751 5.73766 20.0887C5.91084 19.73 7.88991 15.9203 13.3818 14.0031C13.4066 13.9907 13.4189 13.9907 13.4437 13.9784C14.8166 17.5283 15.3733 20.5093 15.5217 21.3628C14.3466 21.8699 13.0602 22.142 11.712 22.142ZM17.1421 20.4722C17.0431 19.8785 16.5236 17.0335 15.2496 13.5331C18.3048 13.0507 20.9765 13.8423 21.3105 13.9536C20.8899 16.6625 19.3314 19.0003 17.1421 20.4722Z" fill="#FF3E80"/>
</svg>
