<svg width="18" height="18" viewBox="0 0 18 18" fill="none" xmlns="http://www.w3.org/2000/svg">
<path fill-rule="evenodd" clip-rule="evenodd" d="M9 0.5C4.30749 0.5 0.5 4.30749 0.5 9C0.5 13.6925 4.30749 17.5 9 17.5C13.6833 17.5 17.5 13.6925 17.5 9C17.5 4.30749 13.6833 0.5 9 0.5ZM14.6144 4.41811C15.6285 5.65347 16.237 7.22994 16.2554 8.93547C16.0157 8.88936 13.6188 8.40077 11.2034 8.70498C11.1481 8.58515 11.1019 8.45607 11.0466 8.327C10.8991 7.97669 10.7332 7.61714 10.5672 7.27603C13.2408 6.18818 14.4577 4.62094 14.6144 4.41811ZM9 1.7538C10.8438 1.7538 12.5309 2.44523 13.8124 3.57918C13.6833 3.76356 12.5862 5.2294 10.0049 6.1974C8.81562 4.01247 7.49728 2.22397 7.29448 1.9474C7.83839 1.81833 8.40998 1.7538 9 1.7538ZM5.91161 2.43601C6.10521 2.69414 7.39588 4.49187 8.60358 6.63069C5.21095 7.53416 2.21476 7.51573 1.89208 7.51573C2.36225 5.26627 3.88341 3.39479 5.91161 2.43601ZM1.73536 9.00921C1.73536 8.93547 1.73536 8.86172 1.73536 8.78796C2.04881 8.79717 5.57051 8.84328 9.1936 7.75543C9.40564 8.16107 9.59923 8.57592 9.78362 8.99079C9.69142 9.01845 9.59002 9.0461 9.49783 9.07375C5.75489 10.2815 3.76356 13.5819 3.59762 13.8585C2.44523 12.577 1.73536 10.8715 1.73536 9.00921ZM9 16.2646C7.32213 16.2646 5.77331 15.6931 4.54717 14.7343C4.67625 14.4669 6.15131 11.6274 10.2446 10.1985C10.263 10.1893 10.2722 10.1893 10.2907 10.18C11.314 12.8259 11.7289 15.0477 11.8395 15.6838C10.9637 16.0618 10.0049 16.2646 9 16.2646ZM13.0472 15.0201C12.9734 14.5775 12.5862 12.4572 11.6367 9.84816C13.9138 9.48861 15.9051 10.0786 16.154 10.1616C15.8406 12.1806 14.679 13.923 13.0472 15.0201Z" fill="white"/>
</svg>
