<svg width="50" height="49" viewBox="0 0 50 49" fill="none" xmlns="http://www.w3.org/2000/svg">
<path d="M49.1886 0.244141H0.887695V48.5451H49.1886V0.244141Z" fill="white"/>
<path d="M22.2454 23.4132C22.2454 23.4132 24.9624 23.1868 24.9624 20.017C24.9624 16.8473 22.7737 15.3379 19.9813 15.3379H10.6985V33.1489H19.9813C19.9813 33.1489 25.6416 33.2998 25.6416 27.8659C25.5661 27.8659 25.868 23.4132 22.2454 23.4132ZM14.7739 18.5076H19.9813C19.9813 18.5076 21.2643 18.5076 21.2643 20.3944C21.2643 22.2811 20.5096 22.5076 19.6794 22.5076H14.8493V18.5076H14.7739ZM19.6794 29.9036H14.7739V25.149H19.9813C19.9813 25.149 21.8681 25.149 21.8681 27.5641C21.7926 29.6772 20.4341 29.9036 19.6794 29.9036Z" fill="#FF3E80"/>
<path d="M36.6603 16.3945H29.3397V18.5832H36.6603V16.3945Z" fill="#FF3E80"/>
<path d="M33.113 19.8662C26.2452 19.8662 26.2452 26.734 26.2452 26.734C26.2452 26.734 25.7924 33.5263 33.113 33.5263C33.113 33.5263 39.2261 33.9037 39.2261 28.7717H36.0563C36.0563 28.7717 36.1318 30.6584 33.1885 30.6584C33.1885 30.6584 30.0187 30.8849 30.0187 27.5642H39.2261C39.3016 27.5642 40.3581 19.8662 33.113 19.8662ZM30.0942 25.1491C30.0942 25.1491 30.4715 22.4322 33.1885 22.4322C35.9054 22.4322 35.9054 25.1491 35.9054 25.1491H30.0942Z" fill="#FF3E80"/>
</svg>
