<svg width="76" height="19" viewBox="0 0 76 19" fill="none" xmlns="http://www.w3.org/2000/svg">
<path fill-rule="evenodd" clip-rule="evenodd" d="M0.929757 2.06867C1.27138 1.54377 1.86878 1.14483 2.59096 0.959333C3.31314 0.773832 4.10116 0.816906 4.78226 1.07911L38 13.8902L71.212 1.07467C71.5499 0.941465 71.9186 0.861188 72.2968 0.838473C72.6751 0.815758 73.0555 0.851054 73.416 0.942325C73.7765 1.0336 74.1101 1.17904 74.3974 1.37026C74.6848 1.56149 74.9202 1.79472 75.0902 2.05651C75.2602 2.31829 75.3613 2.60346 75.3878 2.89556C75.4144 3.18766 75.3657 3.48092 75.2446 3.75843C75.1236 4.03595 74.9325 4.29222 74.6825 4.51249C74.4325 4.73275 74.1285 4.91265 73.788 5.0418L39.288 18.3543C38.8882 18.5089 38.4472 18.5894 38 18.5894C37.5528 18.5894 37.1118 18.5089 36.712 18.3543L2.21201 5.0418C1.53185 4.77815 1.01492 4.31712 0.77455 3.75979C0.534182 3.20245 0.589997 2.5943 0.929757 2.06867Z" fill="white"/>
</svg>
