<svg width="25" height="25" viewBox="0 0 25 25" fill="none" xmlns="http://www.w3.org/2000/svg">
<path d="M12.656 0.686523C9.47607 0.686523 9.07699 0.700428 7.82803 0.757267C6.58152 0.81435 5.73067 1.0117 4.98617 1.30126C4.21606 1.60034 3.5628 2.00041 2.91198 2.65149C2.26067 3.30234 1.86061 3.95562 1.56057 4.7255C1.27028 5.47027 1.0727 6.32139 1.01659 7.56745C0.960729 8.81645 0.946093 9.21578 0.946093 12.3958C0.946093 15.5759 0.960241 15.9738 1.01683 17.2228C1.07416 18.4693 1.2715 19.3202 1.56081 20.0647C1.86012 20.8348 2.26018 21.4881 2.91125 22.139C3.56183 22.7903 4.21509 23.1913 4.98471 23.4904C5.72969 23.78 6.58079 23.9773 7.82706 24.0344C9.07601 24.0912 9.47485 24.1052 12.6546 24.1052C15.8348 24.1052 16.2326 24.0912 17.4816 24.0344C18.7281 23.9773 19.5799 23.78 20.3249 23.4904C21.0948 23.1913 21.7471 22.7903 22.3976 22.139C23.049 21.4881 23.449 20.8348 23.7491 20.065C24.0369 19.3202 24.2345 18.4691 24.293 17.223C24.3491 15.974 24.3638 15.5759 24.3638 12.3958C24.3638 9.21578 24.3491 8.81669 24.293 7.5677C24.2345 6.32114 24.0369 5.47027 23.7491 4.72575C23.449 3.95562 23.049 3.30234 22.3976 2.65149C21.7463 2.00016 21.095 1.60009 20.3242 1.30126C19.5777 1.0117 18.7264 0.81435 17.4799 0.757267C16.2309 0.700428 15.8333 0.686523 12.6524 0.686523H12.656ZM11.6056 2.79664C11.9174 2.79615 12.2652 2.79664 12.656 2.79664C15.7823 2.79664 16.1529 2.80786 17.3874 2.86397C18.529 2.91617 19.1486 3.10694 19.5614 3.26721C20.1078 3.47944 20.4974 3.73314 20.9069 4.14297C21.3168 4.55279 21.5705 4.9431 21.7832 5.48954C21.9434 5.9018 22.1344 6.52142 22.1864 7.66308C22.2425 8.89744 22.2547 9.26823 22.2547 12.3932C22.2547 15.5181 22.2425 15.8889 22.1864 17.1232C22.1342 18.2649 21.9434 18.8845 21.7832 19.2968C21.5709 19.8432 21.3168 20.2323 20.9069 20.6419C20.4971 21.0517 20.1081 21.3054 19.5614 21.5176C19.1491 21.6786 18.529 21.8689 17.3874 21.9211C16.1531 21.9772 15.7823 21.9894 12.656 21.9894C9.52949 21.9894 9.15895 21.9772 7.92463 21.9211C6.78301 21.8684 6.16341 21.6777 5.75043 21.5174C5.20401 21.3052 4.81371 21.0515 4.40389 20.6416C3.99408 20.2318 3.74039 19.8425 3.52767 19.2958C3.36741 18.8835 3.17641 18.2639 3.12445 17.1223C3.06834 15.8879 3.05712 15.5171 3.05712 12.3902C3.05712 9.26335 3.06834 8.89451 3.12445 7.66015C3.17665 6.51849 3.36741 5.89888 3.52767 5.48612C3.7399 4.93969 3.99408 4.54938 4.40389 4.13955C4.81371 3.72973 5.20401 3.47602 5.75043 3.2633C6.16317 3.1023 6.78301 2.91203 7.92463 2.85958C9.00479 2.81079 9.42338 2.79615 11.6056 2.79371V2.79664ZM18.9062 4.74087C18.1305 4.74087 17.5011 5.36952 17.5011 6.1455C17.5011 6.92125 18.1305 7.55062 18.9062 7.55062C19.6819 7.55062 20.3113 6.92125 20.3113 6.1455C20.3113 5.36976 19.6819 4.74039 18.9062 4.74039V4.74087ZM12.656 6.38262C9.33532 6.38262 6.64299 9.07503 6.64299 12.3958C6.64299 15.7166 9.33532 18.4078 12.656 18.4078C15.9767 18.4078 18.6681 15.7166 18.6681 12.3958C18.6681 9.07503 15.9765 6.38262 12.6558 6.38262H12.656ZM12.656 8.49273C14.8115 8.49273 16.559 10.2401 16.559 12.3958C16.559 14.5513 14.8115 16.2989 12.656 16.2989C10.5004 16.2989 8.75304 14.5513 8.75304 12.3958C8.75304 10.2401 10.5004 8.49273 12.656 8.49273Z" fill="#FF3E80"/>
</svg>
