<svg width="18" height="18" viewBox="0 0 18 18" fill="none" xmlns="http://www.w3.org/2000/svg">
<path d="M9.00038 0.272705C6.63027 0.272705 6.33282 0.283069 5.40194 0.325433C4.47288 0.367978 3.83872 0.515069 3.28383 0.730887C2.70984 0.953796 2.22295 1.25198 1.73787 1.73725C1.25243 2.22234 0.95426 2.70925 0.73063 3.28307C0.514273 3.83816 0.367005 4.47252 0.325188 5.40125C0.283553 6.33216 0.272644 6.6298 0.272644 8.99998C0.272644 11.3702 0.283189 11.6667 0.32537 12.5976C0.368096 13.5267 0.515182 14.1609 0.730812 14.7158C0.953896 15.2898 1.25207 15.7767 1.73733 16.2618C2.22222 16.7472 2.70912 17.0462 3.28273 17.2691C3.83799 17.4849 4.47233 17.632 5.40122 17.6745C6.3321 17.7169 6.62936 17.7272 8.99929 17.7272C11.3696 17.7272 11.6661 17.7169 12.597 17.6745C13.5261 17.632 14.161 17.4849 14.7162 17.2691C15.29 17.0462 15.7762 16.7472 16.2611 16.2618C16.7465 15.7767 17.0447 15.2898 17.2683 14.716C17.4828 14.1609 17.6301 13.5265 17.6738 12.5978C17.7156 11.6669 17.7265 11.3702 17.7265 8.99998C17.7265 6.6298 17.7156 6.33234 17.6738 5.40143C17.6301 4.47234 17.4828 3.83816 17.2683 3.28325C17.0447 2.70925 16.7465 2.22234 16.2611 1.73725C15.7756 1.2518 15.2902 0.953614 14.7157 0.730887C14.1593 0.515069 13.5248 0.367978 12.5957 0.325433C11.6648 0.283069 11.3685 0.272705 8.99765 0.272705H9.00038ZM8.21749 1.84543C8.44985 1.84507 8.70912 1.84543 9.00038 1.84543C11.3305 1.84543 11.6067 1.8538 12.5268 1.89561C13.3777 1.93452 13.8395 2.07671 14.1471 2.19616C14.5544 2.35434 14.8447 2.54343 15.15 2.84889C15.4555 3.15434 15.6445 3.44525 15.8031 3.85252C15.9225 4.1598 16.0649 4.62161 16.1036 5.47252C16.1454 6.39252 16.1545 6.66889 16.1545 8.99798C16.1545 11.3271 16.1454 11.6034 16.1036 12.5234C16.0647 13.3743 15.9225 13.8362 15.8031 14.1434C15.6449 14.5507 15.4555 14.8407 15.15 15.146C14.8446 15.4514 14.5546 15.6405 14.1471 15.7987C13.8399 15.9187 13.3777 16.0605 12.5268 16.0994C11.6068 16.1412 11.3305 16.1503 9.00038 16.1503C6.67009 16.1503 6.39391 16.1412 5.47394 16.0994C4.62306 16.0602 4.16125 15.918 3.85344 15.7985C3.44618 15.6403 3.15528 15.4513 2.84984 15.1458C2.54439 14.8403 2.35531 14.5502 2.19677 14.1427C2.07732 13.8354 1.93496 13.3736 1.89623 12.5227C1.85441 11.6027 1.84605 11.3263 1.84605 8.9958C1.84605 6.66525 1.85441 6.39034 1.89623 5.47034C1.93514 4.61943 2.07732 4.15761 2.19677 3.84998C2.35494 3.4427 2.54439 3.1518 2.84984 2.84634C3.15528 2.54089 3.44618 2.3518 3.85344 2.19325C4.16107 2.07325 4.62306 1.93143 5.47394 1.89234C6.27901 1.85598 6.591 1.84507 8.21749 1.84325V1.84543ZM13.6588 3.29452C13.0806 3.29452 12.6115 3.76307 12.6115 4.34143C12.6115 4.91961 13.0806 5.3887 13.6588 5.3887C14.2369 5.3887 14.706 4.91961 14.706 4.34143C14.706 3.76325 14.2369 3.29416 13.6588 3.29416V3.29452ZM9.00038 4.51816C6.52536 4.51816 4.5187 6.52489 4.5187 8.99998C4.5187 11.4751 6.52536 13.4809 9.00038 13.4809C11.4754 13.4809 13.4813 11.4751 13.4813 8.99998C13.4813 6.52489 11.4752 4.51816 9.0002 4.51816H9.00038ZM9.00038 6.09089C10.6069 6.09089 11.9094 7.39325 11.9094 8.99998C11.9094 10.6065 10.6069 11.9091 9.00038 11.9091C7.3937 11.9091 6.09138 10.6065 6.09138 8.99998C6.09138 7.39325 7.3937 6.09089 9.00038 6.09089Z" fill="white"/>
</svg>
