<svg width="40" height="24" viewBox="0 0 40 24" fill="none" xmlns="http://www.w3.org/2000/svg">
<path fill-rule="evenodd" clip-rule="evenodd" d="M0.564689 10.9063C0.34057 11.1304 0.214662 11.4343 0.214661 11.7513C0.214661 12.0683 0.34057 12.3722 0.564689 12.5963L10.7052 22.7368C10.9293 22.961 11.2333 23.0869 11.5502 23.0869C11.8672 23.0869 12.1711 22.961 12.3953 22.7368C12.6194 22.5127 12.7453 22.2087 12.7453 21.8918C12.7453 21.5748 12.6194 21.2709 12.3953 21.0468L4.2947 12.9462L38.5916 12.9479C38.9089 12.9479 39.2133 12.8218 39.4377 12.5974C39.6621 12.373 39.7881 12.0687 39.7881 11.7513C39.7881 11.4339 39.6621 11.1296 39.4377 10.9052C39.2133 10.6808 38.9089 10.5547 38.5916 10.5547L4.2947 10.5564L12.3953 2.45584C12.6194 2.23172 12.7453 1.92776 12.7453 1.6108C12.7453 1.29385 12.6194 0.98988 12.3953 0.765761C12.1711 0.541642 11.8672 0.415734 11.5502 0.415735C11.2333 0.415734 10.9293 0.541642 10.7052 0.765761L0.564689 10.9063Z" fill="white"/>
</svg>
