<svg width="17" height="15" viewBox="0 0 17 15" fill="none" xmlns="http://www.w3.org/2000/svg">
<path fill-rule="evenodd" clip-rule="evenodd" d="M14.6615 4.07607C14.6673 4.22598 14.6692 4.37582 14.6692 4.52572C14.6692 9.07046 11.4722 14.3171 5.626 14.3171C3.83015 14.3171 2.16026 13.7447 0.753296 12.7704C1.002 12.7976 1.25459 12.8181 1.51105 12.8181C3.00006 12.8181 4.37149 12.2661 5.45934 11.3394C4.06852 11.319 2.89412 10.3174 2.48908 8.95463C2.68352 8.99551 2.88377 9.01601 3.08855 9.01601C3.3773 9.01601 3.65766 8.97518 3.92639 8.89341C2.47098 8.57998 1.37474 7.19002 1.37474 5.52066C1.37474 5.50022 1.37474 5.49337 1.37474 5.47974C1.80368 5.73185 2.29463 5.88848 2.81594 5.90892C1.96194 5.28888 1.40057 4.23278 1.40057 3.04038C1.40057 2.41352 1.5569 1.8207 1.83209 1.30967C3.39926 3.39466 5.74229 4.76424 8.38375 4.90733C8.32948 4.65522 8.3017 4.38955 8.3017 4.12382C8.3017 2.22279 9.72481 0.682861 11.4806 0.682861C12.3947 0.682861 13.2203 1.09856 13.7997 1.7663C14.5252 1.6164 15.2048 1.33024 15.8197 0.935048C15.5814 1.73907 15.0781 2.41348 14.4205 2.83593C15.0639 2.75417 15.6776 2.57034 16.2467 2.29779C15.8197 2.98597 15.2823 3.5923 14.6615 4.07607Z" fill="white"/>
</svg>
