<svg width="22" height="20" viewBox="0 0 22 20" fill="none" xmlns="http://www.w3.org/2000/svg">
<path fill-rule="evenodd" clip-rule="evenodd" d="M19.1603 5.47257C19.1681 5.67369 19.1707 5.87473 19.1707 6.07586C19.1707 12.1735 14.8813 19.2129 7.03745 19.2129C4.62797 19.2129 2.38749 18.4449 0.499776 17.1376C0.833463 17.1742 1.17236 17.2017 1.51644 17.2017C3.51424 17.2017 5.35428 16.4611 6.81384 15.2178C4.94779 15.1903 3.3721 13.8465 2.82867 12.0181C3.08955 12.0729 3.35821 12.1004 3.63296 12.1004C4.02039 12.1004 4.39654 12.0457 4.7571 11.936C2.80438 11.5154 1.33357 9.65053 1.33357 7.41076C1.33357 7.38334 1.33357 7.37414 1.33357 7.35586C1.90907 7.69411 2.56777 7.90426 3.26721 7.93169C2.12141 7.09978 1.36822 5.68282 1.36822 4.08298C1.36822 3.24193 1.57796 2.44655 1.94719 1.76091C4.04985 4.55833 7.19347 6.39588 10.7375 6.58786C10.6647 6.24961 10.6274 5.89316 10.6274 5.53663C10.6274 2.98604 12.5368 0.919922 14.8925 0.919922C16.1189 0.919922 17.2266 1.47766 18.0041 2.37356C18.9774 2.17244 19.8892 1.78851 20.7143 1.25828C20.3945 2.33702 19.7193 3.24188 18.837 3.80868C19.7002 3.69898 20.5236 3.45234 21.2872 3.08666C20.7143 4.00999 19.9932 4.8235 19.1603 5.47257Z" fill="#FF3E80"/>
</svg>
