<svg width="34" height="33" viewBox="0 0 34 33" fill="none" xmlns="http://www.w3.org/2000/svg">
<circle cx="17.0808" cy="16.8696" r="16.1118" fill="#FFE600"/>
<path d="M21.7801 20.105C21.1852 20.105 20.6485 20.3362 20.2416 20.7084L14.6607 17.4536C14.704 17.2769 14.7312 17.0927 14.7312 16.9047C14.7312 16.7168 14.704 16.5335 14.6607 16.3568L20.1824 13.134C20.6147 13.5414 21.1862 13.7683 21.7801 13.7684C23.0762 13.7684 24.1298 12.7149 24.1298 11.4188C24.1298 10.1227 23.0762 9.06916 21.7801 9.06916C20.4841 9.06916 19.4305 10.1227 19.4305 11.4188C19.4305 11.6068 19.4577 11.791 19.501 11.9667L13.9793 15.1895C13.5468 14.7826 12.9754 14.5557 12.3816 14.5551C11.0855 14.5551 10.0319 15.6087 10.0319 16.9047C10.0319 18.2008 11.0855 19.2544 12.3816 19.2544C12.9755 19.2542 13.547 19.0273 13.9793 18.62L19.5602 21.8747C19.5191 22.0427 19.498 22.2149 19.4972 22.3879C19.4974 22.8391 19.6314 23.2802 19.8822 23.6553C20.133 24.0304 20.4894 24.3228 20.9064 24.4954C21.3233 24.668 21.782 24.7131 22.2246 24.625C22.6672 24.5369 23.0737 24.3196 23.3928 24.0005C23.7119 23.6815 23.9292 23.2749 24.0173 22.8324C24.1054 22.3898 24.0602 21.931 23.8876 21.5141C23.715 21.0972 23.4227 20.7408 23.0476 20.4899C22.6725 20.2391 22.2314 20.1051 21.7801 20.105Z" fill="black"/>
</svg>
