<svg width="36" height="36" viewBox="0 0 36 36" fill="none" xmlns="http://www.w3.org/2000/svg">
<path d="M36 0H0V36H36V0Z" fill="black"/>
<path d="M15.9187 17.2688C15.9187 17.2688 17.9437 17.1 17.9437 14.7375C17.9437 12.375 16.3125 11.25 14.2312 11.25H7.3125V24.525H14.2312C14.2312 24.525 18.45 24.6375 18.45 20.5875C18.3937 20.5875 18.6187 17.2688 15.9187 17.2688ZM10.35 13.6125H14.2312C14.2312 13.6125 15.1875 13.6125 15.1875 15.0188C15.1875 16.425 14.625 16.5938 14.0062 16.5938H10.4062V13.6125H10.35ZM14.0062 22.1062H10.35V18.5625H14.2312C14.2312 18.5625 15.6375 18.5625 15.6375 20.3625C15.5812 21.9375 14.5687 22.1062 14.0062 22.1062Z" fill="#F1F2F2"/>
<path d="M26.6625 12.0376H21.2062V13.6688H26.6625V12.0376Z" fill="#F1F2F2"/>
<path d="M24.0186 14.625C18.8998 14.625 18.8998 19.7437 18.8998 19.7437C18.8998 19.7437 18.5623 24.8062 24.0186 24.8062C24.0186 24.8062 28.5749 25.0875 28.5749 21.2625H26.2124C26.2124 21.2625 26.2686 22.6687 24.0748 22.6687C24.0748 22.6687 21.7123 22.8375 21.7123 20.3625H28.5749C28.6311 20.3625 29.4186 14.625 24.0186 14.625ZM21.7686 18.5625C21.7686 18.5625 22.0498 16.5375 24.0748 16.5375C26.0999 16.5375 26.0999 18.5625 26.0999 18.5625H21.7686Z" fill="#F1F2F2"/>
</svg>
